# xmcd
#
# Track frame offsets:
# 150
# 14737
# 32850
# 53512
# 71850
# 88800
#
# Disc length: 1362 seconds
#
#
# Revision: 0
# Processed by: cddbd v1.5.2PL0 Copyright (c) Steve Scherf et al.
# Submitted via: FreeRIP 2.951 
#
DISCID=50055006
DTITLE=Jimmy Ryan - Gospel Shirt
DYEAR=2005
DGENRE=Country
TTITLE0=Breaks My Heart
TTITLE1=Turn Around
TTITLE2=Gospel Shirt
TTITLE3=Only Ever
TTITLE4=Santa Fe
TTITLE5=Hardest Time
EXTD=EP Free with Dennis Brennan Engagement CD
EXTT0=
EXTT1=
EXTT2=
EXTT3=
EXTT4=
EXTT5=
PLAYORDER=
